<?xml version="1.0" encoding="utf-8"?>
<!-- Generator: Adobe Illustrator 21.1.0, SVG Export Plug-In . SVG Version: 6.00 Build 0)  -->
<svg version="1.1" id="图层_1" xmlns="http://www.w3.org/2000/svg" xmlns:xlink="http://www.w3.org/1999/xlink" x="0px" y="0px"
	 viewBox="0 0 100 125" style="enable-background:new 0 0 100 125;" xml:space="preserve">
<style type="text/css">
	.st0{font-family:'HelveticaNeue-Bold';}
	.st1{font-size:5px;}
</style>
<g>
	<circle cx="50" cy="25.9" r="5.9"/>
	<path d="M42.6,45.2c3.3,0,5.9-2.7,5.9-6s-2.7-5.9-5.9-5.9c-3.3,0-6,2.7-6,5.9C36.7,42.5,39.3,45.2,42.6,45.2z"/>
	<path d="M51.4,39.2c0,3.3,2.7,6,5.9,6c3.3,0,6-2.7,6-6s-2.7-5.9-6-5.9C54.1,33.3,51.4,35.9,51.4,39.2z"/>
	<circle cx="35.7" cy="52.3" r="5.9"/>
	<circle cx="50" cy="52.3" r="5.9"/>
	<circle cx="64.3" cy="52.3" r="5.9"/>
	<circle cx="27.6" cy="65.3" r="5.9"/>
	<circle cx="42.5" cy="65.3" r="5.9"/>
	<path d="M63.4,65.3c0-3.3-2.7-5.9-6-5.9s-5.9,2.7-5.9,5.9c0,3.2,2.7,5.9,5.9,5.9C60.7,71.2,63.4,68.5,63.4,65.3z"/>
	<circle cx="72.4" cy="65.3" r="5.9"/>
	<path d="M21.3,71.4c-3.3,0-5.9,2.7-5.9,5.9c0,3.3,2.7,6,5.9,6c3.3,0,5.9-2.7,5.9-6C27.2,74.1,24.5,71.4,21.3,71.4z"/>
	<path d="M35.6,71.4c-3.3,0-5.9,2.7-5.9,5.9c0,3.3,2.7,6,5.9,6c3.3,0,6-2.7,6-6C41.6,74.1,38.9,71.4,35.6,71.4z"/>
	<path d="M50,71.4c-3.3,0-6,2.7-6,5.9c0,3.3,2.7,6,6,6s5.9-2.7,5.9-6C55.9,74.1,53.3,71.4,50,71.4z"/>
	<path d="M64.4,71.4c-3.3,0-5.9,2.7-5.9,5.9c0,3.3,2.7,6,5.9,6c3.3,0,5.9-2.7,5.9-6C70.3,74.1,67.7,71.4,64.4,71.4z"/>
	<path d="M78.7,71.4c-3.3,0-5.9,2.7-5.9,5.9c0,3.3,2.7,6,5.9,6c3.3,0,6-2.7,6-6C84.7,74.1,82,71.4,78.7,71.4z"/>
	<path d="M94,76.2L93.9,76l-0.1-0.1l-35-62.1l-0.1-0.2l-0.1-0.2c-1.9-2.8-5.2-4.5-8.6-4.5c-3.5,0-6.8,1.8-8.7,4.7l-0.1,0.1l-0.1,0.1
		L6,75.8L6.1,76L6,76.2c-0.7,1.4-1,2.9-1,4.5c0,5.7,4.7,10.4,10.4,10.4h69.2c5.7,0,10.4-4.7,10.4-10.4C95,79.1,94.7,77.6,94,76.2z
		 M84.6,86.6H15.4c-3.3,0-6-2.7-6-6c0-0.9,0.2-1.8,0.6-2.6l35.1-62c1.1-1.6,2.9-2.7,5-2.7c2,0,3.8,1,4.9,2.6L90,78
		c0.4,0.8,0.6,1.6,0.6,2.6C90.5,83.9,87.9,86.6,84.6,86.6z"/>
</g>
<text transform="matrix(1 0 0 1 0 115)" class="st0 st1">Created by Ana Lourenço</text>
<text transform="matrix(1 0 0 1 0 120)" class="st0 st1">from the Noun Project</text>
</svg>
